# xmcd
#
# Track frame offsets:
#	150
#	12329
#	25598
#	36723
#	47396
#	58936
#	70853
#	81748
#	92351
#	104528
#	116679
#	127885
#	139648
#	151712
#	161954
#	171728
#	181788
#	194754
#	204592
#	212600
#	224697
#	233845
#	244905
#	257061
#	270040
#
# Disc length: 3762 seconds
# Revision: 4
# Processed by: cddbd v1.5.2PL0 Copyright (c) Steve Scherf et al.
# Submitted via: dBpowerAMP V12.0
#
DISCID=6e0eb019
DTITLE=Various Artist - Quicksand - The Groove Records Story 1954-1958 [CD 1-2 )
DYEAR=2014
DGENRE=R&B
TTITLE0=Maymie Watts/Quicksand
TTITLE1=Mickey and Sylvia/Love Is Strange
TTITLE2=Big John Greer/Bottle It Up and Go
TTITLE3=Champion Jack Dupree/Lonely Road Blues
TTITLE4='little' George Benson/It Should Have Been Me No. 2
TTITLE5=Mr Bear and the Bearcats/I'm Gonna Keep My Good Eye on You
TTITLE6=Dappers/Unwanted Love
TTITLE7='tiny' Kennedy/Country Boy
TTITLE8=Emmet Hobson/Mattie Bee
TTITLE9=King Curtis/Movin' on
TTITLE10='tiny' Kennedy/Strange Kind of Feeling
TTITLE11=Nitecaps/Bamboo Rock and Roll
TTITLE12=Arthur "big Boy" Crudup/I Love My Baby
TTITLE13=Cousin Leroy/Goin' Back Home
TTITLE14=El Venos/Now We're Together
TTITLE15=Otis Blackwell/Oh! What a Babe
TTITLE16=Sonny Terry/Louise
TTITLE17=Piano Red/Big Rock Joe from Kokomo
TTITLE18=Avalons/Sugar, Sugar
TTITLE19=Du Droppers/Speed King
TTITLE20=Clayton Love/Mary Lou
TTITLE21=Five Keys/I'll Follow You
TTITLE22=Twilighters/Sittin' on a Corner
TTITLE23=Varetta Dillard/Darling Listen to the Words of This Song
TTITLE24=Roy Gaines/Worried 'Bout You Baby
EXTD=
EXTT0=
EXTT1=
EXTT2=
EXTT3=
EXTT4=
EXTT5=
EXTT6=
EXTT7=
EXTT8=
EXTT9=
EXTT10=
EXTT11=
EXTT12=
EXTT13=
EXTT14=
EXTT15=
EXTT16=
EXTT17=
EXTT18=
EXTT19=
EXTT20=
EXTT21=
EXTT22=
EXTT23=
EXTT24=
PLAYORDER=
